<svg xmlns="http://www.w3.org/2000/svg" version="1.1" xmlns:xlink="http://www.w3.org/1999/xlink" xmlns:svgjs="http://svgjs.dev/svgjs" width="1000" height="1000" viewBox="0 0 1000 1000"><rect width="1000" height="1000" fill="#ffffff"></rect><g transform="matrix(0.7,0,0,0.7,149.57575757575756,465.5250663513375)"><svg viewBox="0 0 396 39" data-background-color="#ffffff" preserveAspectRatio="xMidYMid meet" height="98" width="1000" xmlns="http://www.w3.org/2000/svg" xmlns:xlink="http://www.w3.org/1999/xlink"><g id="tight-bounds" transform="matrix(1,0,0,1,0.2400000000000091,0.09945207431249514)"><svg viewBox="0 0 395.52 38.80109585137499" height="38.80109585137499" width="395.52"><g><svg viewBox="0 0 440.21161014778636 43.18540877890467" height="38.80109585137499" width="395.52"><g transform="matrix(1,0,0,1,44.69161014778635,5.968460981744425)"><svg viewBox="0 0 395.52 31.248486815415824" height="31.248486815415824" width="395.52"><g><svg viewBox="0 0 395.52 31.248486815415824" height="31.248486815415824" width="395.52"><g><svg viewBox="0 0 395.52 31.248486815415824" height="31.248486815415824" width="395.52"><g transform="matrix(1,0,0,1,0,0)"><svg width="395.52" viewBox="9.1 -38.45 499.91999999999996 38.95" height="31.248486815415824" data-palette-color="#ffcf25"><g class="undefined-text-0" data-fill-palette-color="primary" id="text-0"><path d="M9.1-35L14.5-35 14.5-19.85 38.95-19.85 38.95-35 44.35-35 44.35 0 38.95 0 38.95-14.65 14.5-14.65 14.5 0 9.1 0 9.1-35ZM87.5-26.25L92.65-26.25 92.65 0 87.5 0 87.5-4.55Q86.45-3.25 84.55-2.1 82.65-0.95 80.2-0.23 77.75 0.5 75.05 0.5L75.05 0.5Q70.3 0.5 66.77-1.25 63.25-3 61.35-6.1 59.45-9.2 59.45-13.15L59.45-13.15Q59.45-17.15 61.47-20.23 63.5-23.3 67.07-25.05 70.65-26.8 75.35-26.8L75.35-26.8Q79.4-26.8 82.62-25.53 85.85-24.25 87.5-22.5L87.5-22.5 87.5-26.25ZM76.2-4.25L76.2-4.25Q79.65-4.25 82.22-5.43 84.8-6.6 86.25-8.6 87.7-10.6 87.7-13.15L87.7-13.15Q87.7-15.7 86.25-17.7 84.8-19.7 82.22-20.85 79.65-22 76.2-22L76.2-22Q72.85-22 70.25-20.85 67.65-19.7 66.17-17.7 64.7-15.7 64.7-13.15L64.7-13.15Q64.7-10.6 66.17-8.6 67.65-6.6 70.25-5.43 72.85-4.25 76.2-4.25ZM129.9-26.8L129.9-26.8Q134.05-26.8 136.82-25.28 139.6-23.75 141-21.18 142.4-18.6 142.4-15.5L142.4-15.5 142.4 0 137.25 0 137.25-14.65Q137.25-16.85 136.1-18.5 134.95-20.15 133-21.08 131.05-22 128.7-22L128.7-22Q126.55-22 124.72-21.23 122.9-20.45 121.57-19.23 120.25-18 119.52-16.6 118.8-15.2 118.8-13.9L118.8-13.9 118.8 0 113.65 0 113.65-26.25 118.8-26.25 118.8-21.4Q120.65-23.55 123.45-25.18 126.25-26.8 129.9-26.8ZM187.44-37L192.59-37 192.59 0 187.44 0 187.44-4.55Q186.39-3.25 184.49-2.1 182.59-0.95 180.14-0.23 177.69 0.5 174.99 0.5L174.99 0.5Q170.24 0.5 166.72-1.25 163.19-3 161.29-6.1 159.39-9.2 159.39-13.15L159.39-13.15Q159.39-17.15 161.42-20.23 163.44-23.3 167.02-25.05 170.59-26.8 175.29-26.8L175.29-26.8Q179.34-26.8 182.57-25.53 185.79-24.25 187.44-22.5L187.44-22.5 187.44-37ZM176.14-4.25L176.14-4.25Q179.59-4.25 182.17-5.43 184.74-6.6 186.19-8.6 187.64-10.6 187.64-13.15L187.64-13.15Q187.64-15.7 186.19-17.7 184.74-19.7 182.17-20.85 179.59-22 176.14-22L176.14-22Q172.79-22 170.19-20.85 167.59-19.7 166.12-17.7 164.64-15.7 164.64-13.15L164.64-13.15Q164.64-10.6 166.12-8.6 167.59-6.6 170.19-5.43 172.79-4.25 176.14-4.25ZM215.04-31.95L215.04-31.95Q213.29-31.95 212.44-32.85 211.59-33.75 211.59-35.2L211.59-35.2Q211.59-36.45 212.44-37.45 213.29-38.45 215.04-38.45L215.04-38.45Q216.79-38.45 217.64-37.55 218.49-36.65 218.49-35.2L218.49-35.2Q218.49-33.95 217.64-32.95 216.79-31.95 215.04-31.95ZM217.59-26.25L217.59 0 212.44 0 212.44-26.25 217.59-26.25ZM252.19 0L246.79 0 246.79-29.8 233.49-29.8 233.49-35 265.79-35 265.79-29.8 252.19-29.8 252.19 0ZM303.84-25.3L302.49-20Q301.39-20.65 299.79-21.03 298.19-21.4 296.74-21.4L296.74-21.4Q293.74-21.4 291.54-20.13 289.34-18.85 288.16-16.93 286.99-15 286.99-13L286.99-13 286.99 0 281.79 0 281.79-26.25 286.99-26.25 286.99-20.35Q288.74-23.2 291.59-25 294.44-26.8 297.49-26.8L297.49-26.8Q299.34-26.8 301.09-26.4 302.84-26 303.84-25.3L303.84-25.3ZM343.88-26.25L349.03-26.25 349.03 0 343.88 0 343.88-4.55Q342.83-3.25 340.93-2.1 339.03-0.95 336.58-0.23 334.13 0.5 331.43 0.5L331.43 0.5Q326.68 0.5 323.16-1.25 319.63-3 317.73-6.1 315.83-9.2 315.83-13.15L315.83-13.15Q315.83-17.15 317.86-20.23 319.88-23.3 323.46-25.05 327.03-26.8 331.73-26.8L331.73-26.8Q335.78-26.8 339.01-25.53 342.23-24.25 343.88-22.5L343.88-22.5 343.88-26.25ZM332.58-4.25L332.58-4.25Q336.03-4.25 338.61-5.43 341.18-6.6 342.63-8.6 344.08-10.6 344.08-13.15L344.08-13.15Q344.08-15.7 342.63-17.7 341.18-19.7 338.61-20.85 336.03-22 332.58-22L332.58-22Q329.23-22 326.63-20.85 324.03-19.7 322.56-17.7 321.08-15.7 321.08-13.15L321.08-13.15Q321.08-10.6 322.56-8.6 324.03-6.6 326.63-5.43 329.23-4.25 332.58-4.25ZM363.28-26.25L369.33-26.25 380.73-5.1 392.43-26.25 398.23-26.25 382.88 0 378.18 0 363.28-26.25ZM438.33-7.35L440.63-3.45 440.58-3.45Q439.08-2.45 436.83-1.53 434.58-0.6 431.88-0.05 429.18 0.5 426.33 0.5L426.33 0.5Q421.08 0.5 417.05-1.23 413.03-2.95 410.75-5.98 408.48-9 408.48-12.85L408.48-12.85Q408.48-16.15 409.85-18.75 411.23-21.35 413.65-23.15 416.08-24.95 419.23-25.9 422.38-26.85 425.88-26.85L425.88-26.85Q430.28-26.85 433.88-25.23 437.48-23.6 439.63-20.75 441.78-17.9 441.78-14.1L441.78-14.1 441.73-11.4 413.78-11.4Q414.63-8.1 418.25-6.2 421.88-4.3 427.33-4.3L427.33-4.3Q431.38-4.3 434.03-5.35 436.68-6.4 438.33-7.35L438.33-7.35ZM425.88-22.1L425.88-22.1Q422.88-22.1 420.35-21.45 417.83-20.8 416.13-19.35 414.43-17.9 413.83-15.5L413.83-15.5 436.53-15.5 436.53-16.35Q436.28-18.05 434.7-19.35 433.13-20.65 430.8-21.38 428.48-22.1 425.88-22.1ZM464.68 0L459.53 0 459.53-37 464.68-37 464.68 0ZM508.87-22.6L506.17-19.05Q504.02-20.55 500.97-21.55 497.92-22.55 495.12-22.55L495.12-22.55Q493.87-22.55 492.45-22.43 491.02-22.3 489.77-21.95 488.52-21.6 487.72-20.98 486.92-20.35 486.92-19.4L486.92-19.4Q486.97-18.25 488.22-17.5 489.47-16.75 491.52-16.25 493.57-15.75 496.02-15.35L496.02-15.35Q498.42-15 500.72-14.48 503.02-13.95 504.9-13.15 506.77-12.35 507.9-11.1 509.02-9.85 509.02-8.05L509.02-8.05Q509.02-5.25 507.3-3.33 505.57-1.4 502.62-0.45 499.67 0.5 496.07 0.5L496.07 0.5Q491.47 0.5 487.65-0.65 483.82-1.8 481.17-4.55L481.17-4.55 484.67-7.8Q486.67-5.95 489.4-4.88 492.12-3.8 495.47-3.8L495.47-3.8Q496.77-3.8 498.22-3.93 499.67-4.05 500.95-4.4 502.22-4.75 503.02-5.4 503.82-6.05 503.82-7.1L503.82-7.1Q503.82-8.25 502.5-8.93 501.17-9.6 499.02-10.05 496.87-10.5 494.37-10.85L494.37-10.85Q491.77-11.3 489.47-11.83 487.17-12.35 485.45-13.2 483.72-14.05 482.75-15.5 481.77-16.95 481.77-19.2L481.77-19.2Q481.77-21.55 483.55-23.25 485.32-24.95 488.35-25.88 491.37-26.8 495.12-26.8L495.12-26.8Q497.47-26.8 500.02-26.38 502.57-25.95 504.92-25.03 507.27-24.1 508.87-22.6L508.87-22.6Z" fill="#000000" data-fill-palette-color="primary"></path></g></svg></g></svg></g></svg></g></svg></g><g><svg viewBox="0 0 37.31459237435024 43.18540877890467" height="43.18540877890467" width="37.31459237435024"><g><svg xmlns="http://www.w3.org/2000/svg" xmlns:xlink="http://www.w3.org/1999/xlink" version="1.1" x="0" y="0" viewBox="12.035 4.144999999999998 77.765 90.00000000000001" enable-background="new 0 0 100 100" xml:space="preserve" height="43.18540877890467" width="37.31459237435024" class="icon-icon-0" data-fill-palette-color="accent" id="icon-0"><g fill="#3a67a9" data-fill-palette-color="accent"><path d="M86.761 72.005l-7.643 3.419L67.694 50.101H40.712l-0.313-5.67h19.724v-7.443H39.987l-0.929-16.8c2.947-1.333 4.996-4.245 4.996-7.631 0-4.646-3.848-8.412-8.594-8.412s-8.594 3.766-8.594 8.412c0 3.284 1.927 6.121 4.731 7.506l2.074 37.481h29.216l12.497 27.704L89.8 78.799 86.761 72.005z" fill="#000000" data-fill-palette-color="accent"></path><path d="M41.506 86.701c-12.146 0-22.028-9.882-22.028-22.028 0-6.966 3.254-13.183 8.318-17.222l-0.476-8.6c-9.103 5.021-15.285 14.711-15.285 25.822 0 16.251 13.221 29.472 29.471 29.472 11.054 0 20.699-6.12 25.743-15.146l-4.265-9.453C60.76 79.354 51.978 86.701 41.506 86.701z" fill="#000000" data-fill-palette-color="accent"></path></g></svg></g></svg></g></svg></g><defs></defs></svg><rect width="395.52" height="38.80109585137499" fill="none" stroke="none" visibility="hidden"></rect></g></svg></g></svg>